<svg width="100" height="100" viewBox="0 0 100 100" fill="none" xmlns="http://www.w3.org/2000/svg">
<path d="M6.017 4.31297L61.35 0.225972C68.147 -0.357028 69.893 0.0359719 74.167 3.14297L91.83 15.586C94.743 17.726 95.713 18.309 95.713 20.639V88.882C95.713 93.159 94.16 95.689 88.723 96.075L24.467 99.967C20.387 100.16 18.444 99.577 16.307 96.854L3.3 79.94C0.967 76.827 0 74.497 0 71.773V11.113C0 7.61597 1.553 4.69997 6.017 4.31297Z" fill="white"/>
<path fill-rule="evenodd" clip-rule="evenodd" d="M61.35 0.226972L6.017 4.31397C1.553 4.69997 0 7.61697 0 11.113V71.773C0 74.496 0.967 76.826 3.3 79.94L16.307 96.853C18.444 99.576 20.387 100.16 24.467 99.966L88.724 96.076C94.157 95.689 95.714 93.159 95.714 88.883V20.64C95.714 18.43 94.841 17.793 92.271 15.907L74.167 3.14297C69.894 0.0359719 68.147 -0.357028 61.35 0.225972V0.226972ZM25.92 19.523C20.673 19.876 19.483 19.956 16.503 17.533L8.927 11.507C8.157 10.727 8.544 9.75397 10.484 9.55997L63.677 5.67297C68.144 5.28297 70.47 6.83997 72.217 8.19997L81.34 14.81C81.73 15.007 82.7 16.17 81.533 16.17L26.6 19.477L25.92 19.523ZM19.803 88.3V30.367C19.803 27.837 20.58 26.67 22.906 26.474L86 22.78C88.14 22.587 89.107 23.947 89.107 26.473V84.02C89.107 86.55 88.717 88.69 85.224 88.883L24.847 92.383C21.354 92.576 19.804 91.413 19.804 88.3H19.803Z" fill="black"/>
<path d="M36.5627 70.5557C35.8391 71.3313 35.4533 72.3627 35.4901 73.4228L35.5 77.5C35.5185 78.0301 35.8885 78.7952 36.2765 79.1569C36.6644 79.5187 37.1802 79.7115 37.7103 79.693L43.8155 79.1569C45 79 45.1382 78.8879 45.5 78.5C45.6356 78.1359 45.6541 77.9452 45.6356 77.4151L45.6356 75.5C45.6171 74.9699 45.7401 74.3705 46.1019 73.9825C46.4636 73.5946 46.9647 73.3663 47.4948 73.3478L49.4936 73.278C50.0237 73.2595 50.5247 73.0311 50.8865 72.6432C51.2482 72.2553 51.4411 71.7395 51.4226 71.2094L51.4225 69.22C51.404 68.6899 51.5271 68.1649 51.8888 67.7769C52.2506 67.389 52.7516 67.1607 53.2817 67.1422L53.6255 67.1302C54.6857 67.0929 55.6876 66.6361 56.4109 65.8602L57.9811 64.1764C60.7929 65.0471 63.8169 64.9378 66.5585 63.8664C69.3 62.795 71.5969 60.8249 73.0732 58.2785C74.5495 55.732 75.1179 52.76 74.6855 49.8485C74.253 46.937 72.8453 44.2584 70.6925 42.251C68.5398 40.2436 65.7695 39.0262 62.8349 38.7979C59.9003 38.5696 56.975 39.3439 54.5377 40.9942C52.1004 42.6446 50.2953 45.0732 49.4177 47.8827C48.5402 50.6923 48.6421 53.7165 49.7068 56.4607L36.5627 70.5557Z" fill="black" stroke="black" stroke-linecap="round" stroke-linejoin="round"/>
<path d="M64 51C64.5523 51 65 50.5523 65 50C65 49.4477 64.5523 49 64 49C63.4477 49 63 49.4477 63 50C63 50.5523 63.4477 51 64 51Z" fill="white" stroke="white" stroke-width="2" stroke-linecap="round" stroke-linejoin="round"/>
</svg>
