<svg width="100" height="100" viewBox="0 0 100 100" fill="none" xmlns="http://www.w3.org/2000/svg">
<path d="M6.017 4.31297L61.35 0.225972C68.147 -0.357028 69.893 0.0359719 74.167 3.14297L91.83 15.586C94.743 17.726 95.713 18.309 95.713 20.639V88.882C95.713 93.159 94.16 95.689 88.723 96.075L24.467 99.967C20.387 100.16 18.444 99.577 16.307 96.854L3.3 79.94C0.967 76.827 0 74.497 0 71.773V11.113C0 7.61597 1.553 4.69997 6.017 4.31297Z" fill="white"/>
<path fill-rule="evenodd" clip-rule="evenodd" d="M61.35 0.226972L6.017 4.31397C1.553 4.69997 0 7.61697 0 11.113V71.773C0 74.496 0.967 76.826 3.3 79.94L16.307 96.853C18.444 99.576 20.387 100.16 24.467 99.966L88.724 96.076C94.157 95.689 95.714 93.159 95.714 88.883V20.64C95.714 18.43 94.841 17.793 92.271 15.907L74.167 3.14297C69.894 0.0359719 68.147 -0.357028 61.35 0.225972V0.226972ZM25.92 19.523C20.673 19.876 19.483 19.956 16.503 17.533L8.927 11.507C8.157 10.727 8.544 9.75397 10.484 9.55997L63.677 5.67297C68.144 5.28297 70.47 6.83997 72.217 8.19997L81.34 14.81C81.73 15.007 82.7 16.17 81.533 16.17L26.6 19.477L25.92 19.523ZM19.803 88.3V30.367C19.803 27.837 20.58 26.67 22.906 26.474L86 22.78C88.14 22.587 89.107 23.947 89.107 26.473V84.02C89.107 86.55 88.717 88.69 85.224 88.883L24.847 92.383C21.354 92.576 19.804 91.413 19.804 88.3H19.803Z" fill="black"/>
<path d="M37.7887 81.9035C37.2295 81.9328 36.6673 81.9062 36.1022 81.8236C35.5744 81.7391 35.0466 81.6546 34.5188 81.5701C34.5644 79.5864 34.5736 77.6232 34.5466 75.6806C34.5568 73.7361 34.5318 71.8308 34.4713 69.9647C34.4482 68.0967 34.3937 66.3425 34.3077 64.7021C34.1397 61.4958 33.8881 58.836 33.5531 56.7226C33.218 54.6093 32.8112 52.9109 32.3327 51.6275C31.8896 50.3049 31.3688 49.2854 30.7705 48.5691C30.1703 47.8155 29.5405 47.2129 28.8813 46.7615C29.4349 45.91 30.3102 45.1351 31.5073 44.4369C32.7416 43.7366 34.0485 43.3504 35.428 43.2781C37.0684 43.1921 38.4909 43.5849 39.6955 44.4563C40.9001 45.3278 41.8544 46.7732 42.5584 48.7925C43.2623 50.8117 43.7023 53.499 43.8781 56.8544C43.9563 58.3457 43.9912 60.0823 43.9829 62.0641C43.9746 64.0459 43.9172 66.1611 43.8108 68.4098C43.7396 70.6192 43.5969 72.8885 43.3825 75.2175L43.5502 75.2087C45.0967 74.0435 46.5167 72.6046 47.8102 70.8919C49.139 69.1399 50.2745 67.2673 51.2168 65.2739C52.1571 63.2432 52.8532 61.188 53.305 59.1082C53.7548 56.9911 53.9289 54.9632 53.8273 53.0245C53.7511 51.5705 53.4943 50.2381 53.057 49.0273C52.657 47.8146 52.0421 46.7814 51.2123 45.9276C51.4597 44.9427 52.0133 44.0912 52.8729 43.3732C53.7678 42.616 54.7745 42.2081 55.893 42.1495C57.6452 42.0576 59.0697 42.4877 60.1663 43.4396C61.2983 44.3523 62.1662 45.933 62.7701 48.1818C63.4112 50.4287 63.8305 53.4349 64.0278 57.2004C64.104 58.6544 64.1203 60.3919 64.0767 62.4129C64.0704 64.432 63.9914 66.4923 63.8399 68.5938C63.7236 70.656 63.579 72.5329 63.4059 74.2242L63.5737 74.2154C64.8454 73.5133 66.0288 72.554 67.124 71.3377C68.2172 70.0841 69.2074 68.649 70.0947 67.0323C70.98 65.3784 71.73 63.6381 72.3445 61.8114C72.9591 59.9847 73.404 58.1296 73.6791 56.2459C73.9523 54.325 74.0439 52.5071 73.954 50.7921C73.8563 48.928 73.5438 47.2434 73.0163 45.7382C72.4888 44.2331 71.6944 42.985 70.633 41.9938C70.9826 40.8166 71.698 39.8445 72.7793 39.0775C73.8607 38.3105 74.9979 37.8958 76.1909 37.8332C77.1229 37.7844 77.9931 37.9818 78.8015 38.4254C79.6471 38.8671 80.3396 39.5972 80.8789 40.6157C81.4164 41.5969 81.7281 42.9077 81.814 44.5482C81.9234 46.636 81.7454 48.9444 81.2797 51.4736C80.8514 54.0008 80.1651 56.5976 79.2206 59.2641C78.2743 61.8932 77.119 64.4585 75.7547 66.96C74.3904 69.4615 72.827 71.7304 71.0645 73.7668C69.3 75.7659 67.3669 77.4 65.2651 78.669C63.1986 79.8989 60.991 80.5753 58.6422 80.6984C58.083 80.7277 57.5405 80.7188 57.0146 80.6716C56.4887 80.6244 55.9619 80.5585 55.4341 80.474C55.5285 79.4223 55.5749 78.1675 55.5733 76.7096C55.6089 75.2497 55.6073 73.7918 55.5684 72.3358C55.5648 70.8406 55.5533 69.5515 55.5339 68.4683L55.3102 68.4801C53.8399 71.0993 52.147 73.3937 50.2315 75.3633C48.3532 77.331 46.3416 78.8944 44.1967 80.0536C42.0871 81.1735 39.9511 81.7901 37.7887 81.9035Z" fill="black"/>
</svg>
