<svg width="100" height="100" viewBox="0 0 100 100" fill="none" xmlns="http://www.w3.org/2000/svg">
<path d="M6.017 4.31297L61.35 0.225972C68.147 -0.357028 69.893 0.0359719 74.167 3.14297L91.83 15.586C94.743 17.726 95.713 18.309 95.713 20.639V88.882C95.713 93.159 94.16 95.689 88.723 96.075L24.467 99.967C20.387 100.16 18.444 99.577 16.307 96.854L3.3 79.94C0.967 76.827 0 74.497 0 71.773V11.113C0 7.61597 1.553 4.69997 6.017 4.31297Z" fill="white"/>
<path fill-rule="evenodd" clip-rule="evenodd" d="M61.35 0.226972L6.017 4.31397C1.553 4.69997 0 7.61697 0 11.113V71.773C0 74.496 0.967 76.826 3.3 79.94L16.307 96.853C18.444 99.576 20.387 100.16 24.467 99.966L88.724 96.076C94.157 95.689 95.714 93.159 95.714 88.883V20.64C95.714 18.43 94.841 17.793 92.271 15.907L74.167 3.14297C69.894 0.0359719 68.147 -0.357028 61.35 0.225972V0.226972ZM25.92 19.523C20.673 19.876 19.483 19.956 16.503 17.533L8.927 11.507C8.157 10.727 8.544 9.75397 10.484 9.55997L63.677 5.67297C68.144 5.28297 70.47 6.83997 72.217 8.19997L81.34 14.81C81.73 15.007 82.7 16.17 81.533 16.17L26.6 19.477L25.92 19.523ZM19.803 88.3V30.367C19.803 27.837 20.58 26.67 22.906 26.474L86 22.78C88.14 22.587 89.107 23.947 89.107 26.473V84.02C89.107 86.55 88.717 88.69 85.224 88.883L24.847 92.383C21.354 92.576 19.804 91.413 19.804 88.3H19.803Z" fill="black"/>
</svg>
